<svg width="18" height="18" viewBox="0 0 18 18" fill="none" xmlns="http://www.w3.org/2000/svg">
<g clip-path="url(#clip0_321_350)">
<path d="M2.78025 6.21976L3.3105 6.75001C3.51601 6.9553 3.65748 7.21585 3.71775 7.50001H10.125C10.3239 7.50001 10.5147 7.57903 10.6553 7.71968C10.796 7.86033 10.875 8.0511 10.875 8.25001C10.875 8.44892 10.796 8.63969 10.6553 8.78034C10.5147 8.92099 10.3239 9.00001 10.125 9.00001H3.75V12.75C3.75 13.1478 3.90804 13.5294 4.18934 13.8107C4.47064 14.092 4.85218 14.25 5.25 14.25H12.75C13.1478 14.25 13.5294 14.092 13.8107 13.8107C14.092 13.5294 14.25 13.1478 14.25 12.75V9.00001H13.875C13.6761 9.00001 13.4853 8.92099 13.3447 8.78034C13.204 8.63969 13.125 8.44892 13.125 8.25001C13.125 8.0511 13.204 7.86033 13.3447 7.71968C13.4853 7.57903 13.6761 7.50001 13.875 7.50001H14.2822C14.3425 7.21585 14.484 6.9553 14.6895 6.75001L15.2197 6.21976C15.2889 6.14812 15.3717 6.09099 15.4632 6.05168C15.5547 6.01237 15.6531 5.99168 15.7527 5.99082C15.8523 5.98995 15.951 6.00893 16.0432 6.04664C16.1354 6.08435 16.2191 6.14004 16.2895 6.21046C16.36 6.28088 16.4157 6.36462 16.4534 6.45679C16.4911 6.54896 16.5101 6.64772 16.5092 6.74731C16.5083 6.84689 16.4876 6.94531 16.4483 7.03681C16.409 7.12831 16.3519 7.21107 16.2802 7.28026L15.75 7.81051V12.75C15.75 13.5457 15.4339 14.3087 14.8713 14.8713C14.3087 15.4339 13.5456 15.75 12.75 15.75H5.25C4.45435 15.75 3.69129 15.4339 3.12868 14.8713C2.56607 14.3087 2.25 13.5457 2.25 12.75V7.81051L1.71975 7.28026C1.58313 7.13881 1.50754 6.94935 1.50924 6.75271C1.51095 6.55606 1.58983 6.36795 1.72889 6.22889C1.86794 6.08984 2.05605 6.01096 2.2527 6.00925C2.44935 6.00754 2.6388 6.08314 2.78025 6.21976ZM14.5852 3.07951C14.763 3.16849 14.8982 3.32441 14.961 3.513C15.0239 3.70158 15.0093 3.90741 14.9205 4.08526L11.1705 11.5853C11.1592 11.6084 11.1467 11.6309 11.133 11.6528C10.9456 12.2513 10.5502 12.763 10.0183 13.0954C9.4864 13.4277 8.85313 13.5588 8.23302 13.4648C7.6129 13.3709 7.04688 13.0581 6.63731 12.5831C6.22775 12.1081 6.00168 11.5022 6 10.875V10.5C6 10.3011 6.07902 10.1103 6.21967 9.96968C6.36032 9.82903 6.55109 9.75001 6.75 9.75001H10.4115L13.5795 3.41476C13.6685 3.237 13.8244 3.10184 14.013 3.03898C14.2016 2.97611 14.4074 2.99069 14.5852 3.07951ZM9.68625 11.25H7.56375C7.64105 11.4698 7.78466 11.6601 7.97476 11.7947C8.16485 11.9294 8.39205 12.0017 8.625 12.0017C8.85795 12.0017 9.08515 11.9294 9.27524 11.7947C9.46534 11.6601 9.60895 11.4698 9.68625 11.25ZM10.1663 1.62601C10.2482 1.68066 10.3186 1.75093 10.3734 1.83279C10.4282 1.91465 10.4663 2.0065 10.4856 2.1031C10.5049 2.1997 10.505 2.29915 10.4858 2.39578C10.4667 2.49241 10.4287 2.58432 10.374 2.66626L10.212 2.90851C10.1423 3.01315 10.111 3.13871 10.1234 3.26384C10.1359 3.38896 10.1913 3.5059 10.2802 3.59476C10.6144 3.92891 10.8224 4.36853 10.8689 4.83879C10.9154 5.30905 10.7975 5.78089 10.5352 6.17401L10.374 6.41626C10.2636 6.58175 10.092 6.69661 9.8969 6.73557C9.70182 6.77454 9.49924 6.7344 9.33375 6.62401C9.16825 6.51361 9.05339 6.34199 9.01443 6.14691C8.97547 5.95182 9.0156 5.74925 9.126 5.58376L9.288 5.34151C9.35772 5.23687 9.38903 5.1113 9.37659 4.98618C9.36414 4.86106 9.30872 4.74411 9.21975 4.65526C8.8858 4.32115 8.6779 3.88168 8.63141 3.41158C8.58492 2.94149 8.70271 2.4698 8.96475 2.07676L9.126 1.83376C9.18065 1.7518 9.25092 1.68142 9.33278 1.62662C9.41464 1.57183 9.50649 1.53369 9.60309 1.5144C9.69969 1.49511 9.79914 1.49504 9.89577 1.51419C9.9924 1.53334 10.0843 1.57133 10.1663 1.62601ZM6.126 1.83376C6.23273 1.67591 6.39553 1.56461 6.58135 1.52245C6.76717 1.48029 6.96207 1.51044 7.12646 1.60677C7.29086 1.70309 7.41243 1.85838 7.46648 2.04109C7.52054 2.2238 7.50303 2.42024 7.4175 2.59051L7.37325 2.66551L7.212 2.90851C7.14218 3.01306 7.11075 3.13858 7.12306 3.2637C7.13536 3.38882 7.19065 3.50581 7.2795 3.59476C7.59604 3.91126 7.79991 4.32294 7.85979 4.76654C7.91968 5.21015 7.83227 5.66115 7.611 6.05026L7.53525 6.17401L7.37325 6.41626C7.26594 6.57271 7.10333 6.68268 6.91818 6.72402C6.73302 6.76536 6.53908 6.735 6.37542 6.63904C6.21176 6.54309 6.09054 6.38868 6.03619 6.20692C5.98184 6.02516 5.99838 5.82955 6.0825 5.65951L6.12675 5.58451L6.288 5.34151C6.35782 5.23695 6.38925 5.11143 6.37694 4.98631C6.36464 4.86119 6.30935 4.7442 6.2205 4.65526C5.90396 4.33875 5.70009 3.92708 5.64021 3.48347C5.58032 3.03987 5.66772 2.58887 5.889 2.19976L5.96475 2.07676L6.126 1.83376Z" fill="black"/>
</g>
<defs>
<clipPath id="clip0_321_350">
<rect width="18" height="18" fill="white"/>
</clipPath>
</defs>
</svg>
